<mxfile host="65bd71144e">
    <diagram id="lYqCCSivvWOmUkkDO7KY" name="Page-1">
        <mxGraphModel dx="1277" dy="785" grid="0" gridSize="10" guides="1" tooltips="1" connect="1" arrows="1" fold="1" page="0" pageScale="1" pageWidth="850" pageHeight="1100" math="0" shadow="0">
            <root>
                <mxCell id="0"/>
                <mxCell id="1" parent="0"/>
                <mxCell id="11" style="edgeStyle=none;html=1;entryX=0.029;entryY=0.643;entryDx=0;entryDy=0;entryPerimeter=0;" parent="1" source="2" target="3" edge="1">
                    <mxGeometry relative="1" as="geometry"/>
                </mxCell>
                <mxCell id="12" style="edgeStyle=none;html=1;entryX=0.036;entryY=0.643;entryDx=0;entryDy=0;entryPerimeter=0;" parent="1" source="2" target="8" edge="1">
                    <mxGeometry relative="1" as="geometry"/>
                </mxCell>
                <mxCell id="13" style="edgeStyle=none;html=1;entryX=0.021;entryY=0.414;entryDx=0;entryDy=0;entryPerimeter=0;" parent="1" source="2" target="5" edge="1">
                    <mxGeometry relative="1" as="geometry"/>
                </mxCell>
                <mxCell id="2" value="Asesor de credito" style="shape=umlActor;verticalLabelPosition=bottom;verticalAlign=top;html=1;" parent="1" vertex="1">
                    <mxGeometry x="7" y="215" width="30" height="60" as="geometry"/>
                </mxCell>
                <mxCell id="3" value="Ver prestamos" style="ellipse;whiteSpace=wrap;html=1;" parent="1" vertex="1">
                    <mxGeometry x="181" y="70" width="140" height="70" as="geometry"/>
                </mxCell>
                <mxCell id="4" value="Incluye" style="endArrow=block;endSize=16;endFill=0;html=1;dashed=1;exitX=1;exitY=0.5;exitDx=0;exitDy=0;entryX=0.007;entryY=0.6;entryDx=0;entryDy=0;entryPerimeter=0;" parent="1" source="3" edge="1" target="7">
                    <mxGeometry width="160" relative="1" as="geometry">
                        <mxPoint x="311" y="63" as="sourcePoint"/>
                        <mxPoint x="429" y="57" as="targetPoint"/>
                    </mxGeometry>
                </mxCell>
                <mxCell id="5" value="Ver clientes" style="ellipse;whiteSpace=wrap;html=1;" parent="1" vertex="1">
                    <mxGeometry x="179" y="343" width="140" height="70" as="geometry"/>
                </mxCell>
                <mxCell id="7" value="Ver detalle de un prestamo" style="ellipse;whiteSpace=wrap;html=1;" parent="1" vertex="1">
                    <mxGeometry x="433" y="43" width="140" height="70" as="geometry"/>
                </mxCell>
                <mxCell id="8" value="Ver solicitudes de prestamos" style="ellipse;whiteSpace=wrap;html=1;" parent="1" vertex="1">
                    <mxGeometry x="183" y="171" width="140" height="70" as="geometry"/>
                </mxCell>
                <mxCell id="9" value="Gestionar una solicitud de prestamo" style="ellipse;whiteSpace=wrap;html=1;" parent="1" vertex="1">
                    <mxGeometry x="183" y="257" width="140" height="70" as="geometry"/>
                </mxCell>
                <mxCell id="15" value="Pre aprobacion" style="ellipse;whiteSpace=wrap;html=1;" parent="1" vertex="1">
                    <mxGeometry x="446" y="304" width="140" height="70" as="geometry"/>
                </mxCell>
                <mxCell id="16" value="Incluye" style="endArrow=block;endSize=16;endFill=0;html=1;dashed=1;entryX=0;entryY=0.5;entryDx=0;entryDy=0;" parent="1" target="15" edge="1">
                    <mxGeometry width="160" relative="1" as="geometry">
                        <mxPoint x="324" y="303" as="sourcePoint"/>
                        <mxPoint x="692.94" y="105" as="targetPoint"/>
                    </mxGeometry>
                </mxCell>
                <mxCell id="18" style="edgeStyle=none;html=1;entryX=0;entryY=0.5;entryDx=0;entryDy=0;" edge="1" parent="1" source="2" target="9">
                    <mxGeometry relative="1" as="geometry">
                        <mxPoint x="47" y="252.38105275837142" as="sourcePoint"/>
                        <mxPoint x="198.03999999999996" y="226.01" as="targetPoint"/>
                    </mxGeometry>
                </mxCell>
                <mxCell id="19" value="Revisar requerimientos" style="ellipse;whiteSpace=wrap;html=1;" vertex="1" parent="1">
                    <mxGeometry x="435" y="215" width="140" height="70" as="geometry"/>
                </mxCell>
                <mxCell id="20" value="Incluye" style="endArrow=block;endSize=16;endFill=0;html=1;dashed=1;exitX=1.007;exitY=0.357;exitDx=0;exitDy=0;entryX=0;entryY=0.6;entryDx=0;entryDy=0;exitPerimeter=0;entryPerimeter=0;" edge="1" parent="1" source="9" target="19">
                    <mxGeometry width="160" relative="1" as="geometry">
                        <mxPoint x="332.02" y="295.98" as="sourcePoint"/>
                        <mxPoint x="456" y="349" as="targetPoint"/>
                    </mxGeometry>
                </mxCell>
            </root>
        </mxGraphModel>
    </diagram>
</mxfile>